C:\GBW_MyPrograms\KinderuniversiteitApp\Resultaten\smurftest_v2\Smurf_v1.mot
version=1
nRows=13
nColumns=31
inDegrees=yes
endheader
                time	         pelvis_tilt	           pelvis_tx	           pelvis_ty	       hip_flexion_r	        knee_angle_r	       ankle_angle_r	       hip_flexion_l	        knee_angle_l	       ankle_angle_l	    lumbar_extension	          arm_flex_r	          arm_flex_l	hamstrings_r/activation	bifemsh_r/activation	glut_max_r/activation	iliopsoas_r/activation	rect_fem_r/activation	  vasti_r/activation	gastroc_r/activation	 soleus_r/activation	tib_ant_r/activation	hamstrings_l/activation	bifemsh_l/activation	glut_max_l/activation	iliopsoas_l/activation	rect_fem_l/activation	  vasti_l/activation	gastroc_l/activation	 soleus_l/activation	tib_ant_l/activation	
          0.10000000	         -4.04059491	          0.01998102	          0.04610685	         16.88309449	        -15.33968354	        -20.48089659	         17.11560679	        -15.40549708	        -20.56883298	         -1.78313059	         -2.54252558	         -2.54181891	          0.41602333	          0.69604532	          0.38112082	          0.79331042	          0.65907062	          0.50962737	          0.56637772	          0.62246191	          0.75641588	          0.39049239	          0.70427202	          0.35154393	          0.81067647	          0.66432455	          0.48534197	          0.56808167	          0.61578767	          0.76226408	
          0.10200000	         -4.04154835	          0.02375110	          0.04615554	         16.85501094	        -15.32082437	        -20.48223958	         17.14502421	        -15.43342861	        -20.56599973	         -1.79198163	         -2.53568884	         -2.53505584	          0.41477283	          0.69527194	          0.38193288	          0.79313056	          0.65973129	          0.51179517	          0.56599185	          0.62181989	          0.75692116	          0.38981271	          0.70456489	          0.35057703	          0.81105881	          0.66447131	          0.48462286	          0.56817302	          0.61526892	          0.76253437	
          0.10400000	         -4.04263613	          0.02673201	          0.04615848	         16.82708392	        -15.30130596	        -20.48459557	         17.17517613	        -15.46068358	        -20.56430951	         -1.79981941	         -2.53041227	         -2.52985258	          0.41380620	          0.69525343	          0.38128586	          0.79364722	          0.66005207	          0.51229324	          0.56572911	          0.62171725	          0.75728728	          0.38982433	          0.70402189	          0.35005370	          0.81123837	          0.66471375	          0.48492237	          0.56836588	          0.61547099	          0.76219829	
          0.10600000	         -4.04406158	          0.02799224	          0.04616026	         16.80057241	        -15.28148974	        -20.48771928	         17.20500804	        -15.48662347	        -20.56340189	         -1.80712692	         -2.52632948	         -2.52584081	          0.41286184	          0.69532469	          0.38096154	          0.79404288	          0.66034205	          0.51322479	          0.56567317	          0.62194793	          0.75664719	          0.39048878	          0.70422036	          0.35041826	          0.81088943	          0.66432047	          0.48441318	          0.56869929	          0.61589864	          0.76153106	
          0.10800000	         -4.04615451	          0.02879967	          0.04616054	         16.77471530	        -15.25935487	        -20.49138659	         17.23434446	        -15.51175893	        -20.56173698	         -1.81290273	         -2.52366289	         -2.52324495	          0.41204169	          0.69478386	          0.38119010	          0.79397532	          0.66075307	          0.51449074	          0.56544934	          0.62181514	          0.75684438	          0.39097078	          0.70445387	          0.34964294	          0.81078364	          0.66403571	          0.48391180	          0.56895378	          0.61626804	          0.76144206	
          0.11000000	         -4.04886309	          0.02942746	          0.04616169	         16.74991730	        -15.23834761	        -20.49509785	         17.26277035	        -15.53662923	        -20.55979531	         -1.81659698	         -2.52201230	         -2.52166454	          0.41127378	          0.69530447	          0.38036684	          0.79455851	          0.66092434	          0.51389790	          0.56528256	          0.62165759	          0.75699232	          0.39183355	          0.70382080	          0.35032606	          0.81025830	          0.66388914	          0.48486542	          0.56920807	          0.61673588	          0.76114533	
          0.11200000	         -4.05208616	          0.02995804	          0.04616410	         16.72704845	        -15.21830726	        -20.49808629	         17.28889729	        -15.55860235	        -20.55782215	         -1.81773023	         -2.52186292	         -2.52158462	          0.41093403	          0.69584708	          0.37984224	          0.79459592	          0.66103985	          0.51354034	          0.56512769	          0.62163680	          0.75696298	          0.39306851	          0.70366661	          0.35053164	          0.80981827	          0.66344358	          0.48544269	          0.56949261	          0.61713723	          0.76096400	
          0.11400000	         -4.05537328	          0.03042574	          0.04616346	         16.70555548	        -15.19926744	        -20.50068453	         17.31299835	        -15.57756269	        -20.55620106	         -1.81639391	         -2.52351070	         -2.52330087	          0.41026885	          0.69610241	          0.37926562	          0.79472341	          0.66131293	          0.51330791	          0.56490050	          0.62152402	          0.75731218	          0.39413797	          0.70305502	          0.35109794	          0.80919708	          0.66303082	          0.48664238	          0.56971850	          0.61760067	          0.76110268	
          0.11600000	         -4.05778816	          0.03084847	          0.04616353	         16.68569324	        -15.18278146	        -20.50360573	         17.33488620	        -15.59420087	        -20.55524284	         -1.81413437	         -2.52660424	         -2.52646125	          0.40972650	          0.69634010	          0.37862082	          0.79483810	          0.66159987	          0.51279055	          0.56471885	          0.62141311	          0.75747938	          0.39548329	          0.70294102	          0.35164944	          0.80864037	          0.66252931	          0.48706299	          0.56997168	          0.61787325	          0.76098719	
          0.11800000	         -4.05993198	          0.03123705	          0.04616370	         16.66759679	        -15.16763228	        -20.50652386	         17.35462559	        -15.60999558	        -20.55346547	         -1.81104876	         -2.53079402	         -2.53071463	          0.40901487	          0.69662708	          0.37794225	          0.79504814	          0.66188996	          0.51191692	          0.56454812	          0.62137281	          0.75776147	          0.39694956	          0.70261361	          0.35238854	          0.80820672	          0.66212092	          0.48688604	          0.57018674	          0.61773772	          0.76066404	
          0.12000000	         -4.06172189	          0.03159861	          0.04616267	         16.65103042	        -15.15323637	        -20.50960287	         17.37338318	        -15.62475477	        -20.55035025	         -1.80779472	         -2.53517410	         -2.53515238	          0.40825320	          0.69667180	          0.37737191	          0.79514842	          0.66222548	          0.51178798	          0.56444140	          0.62152924	          0.75760247	          0.39853607	          0.70316495	          0.35205902	          0.80795497	          0.66153675	          0.48531475	          0.57041535	          0.61734699	          0.76023524	
          0.12200000	         -4.06313436	          0.03193817	          0.04616498	         16.63571448	        -15.13959549	        -20.51323109	         17.39232317	        -15.64077599	        -20.54725396	         -1.80434011	         -2.54022682	         -2.54025708	          0.40737255	          0.69661743	          0.37659523	          0.79541833	          0.66265170	          0.51223115	          0.56433270	          0.62165867	          0.75742306	          0.39937335	          0.70279167	          0.35154741	          0.80765675	          0.66117351	          0.48577038	          0.57065680	          0.61750445	          0.75933630	
          0.12400000	         -4.06421333	          0.03225944	          0.04616344	         16.62090945	        -15.12462091	        -20.51712890	         17.40933994	        -15.65437829	        -20.54396782	         -1.80077477	         -2.54652459	         -2.54660284	          0.40686559	          0.69646653	          0.37660596	          0.79534947	          0.66289656	          0.51313483	          0.56432651	          0.62231657	          0.75694957	          0.40195524	          0.70263168	          0.35312155	          0.80648415	          0.66043057	          0.48632703	          0.57081908	          0.61757212	          0.75889615	
